<mxfile host="Electron" modified="2023-08-16T02:26:05.386Z" agent="Mozilla/5.0 (Windows NT 10.0; Win64; x64) AppleWebKit/537.36 (KHTML, like Gecko) draw.io/21.6.5 Chrome/114.0.5735.243 Electron/25.3.1 Safari/537.36" etag="VPUufsSQDSB1sNI1GMPL" version="21.6.5" type="device">
  <diagram name="Page-1" id="r1B_BfNnIdkAQa35sY3z">
    <mxGraphModel dx="1886" dy="606" grid="1" gridSize="10" guides="1" tooltips="1" connect="1" arrows="1" fold="1" page="1" pageScale="1" pageWidth="850" pageHeight="1100" math="0" shadow="0">
      <root>
        <mxCell id="0" />
        <mxCell id="1" parent="0" />
        <mxCell id="l3emcrf3xsV27DRF_MyF-2" value="" style="points=[[0.35,0,0],[0.98,0.51,0],[1,0.71,0],[0.67,1,0],[0,0.795,0],[0,0.65,0]];verticalLabelPosition=bottom;sketch=0;html=1;verticalAlign=top;aspect=fixed;align=center;pointerEvents=1;shape=mxgraph.cisco19.user;fillColor=#005073;strokeColor=none;" parent="1" vertex="1">
          <mxGeometry x="56.5" y="20" width="60" height="60" as="geometry" />
        </mxCell>
        <mxCell id="l3emcrf3xsV27DRF_MyF-3" value="" style="edgeStyle=orthogonalEdgeStyle;html=1;endArrow=open;elbow=vertical;startArrow=none;endFill=0;strokeColor=#545B64;rounded=0;" parent="1" edge="1">
          <mxGeometry width="100" relative="1" as="geometry">
            <mxPoint x="130" y="185" as="sourcePoint" />
            <mxPoint x="190" y="184.5" as="targetPoint" />
          </mxGeometry>
        </mxCell>
        <mxCell id="l3emcrf3xsV27DRF_MyF-6" value="Downloaded Tyrone&#39;s instructions &lt;br&gt;from the GitHub repository" style="text;html=1;align=center;verticalAlign=middle;resizable=0;points=[];autosize=1;strokeColor=none;fillColor=none;" parent="1" vertex="1">
          <mxGeometry x="125.31" y="238" width="200" height="40" as="geometry" />
        </mxCell>
        <mxCell id="l3emcrf3xsV27DRF_MyF-7" value="" style="sketch=0;pointerEvents=1;shadow=0;dashed=0;html=1;strokeColor=none;fillColor=#505050;labelPosition=center;verticalLabelPosition=bottom;verticalAlign=top;outlineConnect=0;align=center;shape=mxgraph.office.concepts.download;" parent="1" vertex="1">
          <mxGeometry x="201.31" y="172" width="48" height="56" as="geometry" />
        </mxCell>
        <mxCell id="l3emcrf3xsV27DRF_MyF-9" value="" style="edgeStyle=orthogonalEdgeStyle;html=1;endArrow=open;elbow=vertical;startArrow=none;endFill=0;strokeColor=#545B64;rounded=0;" parent="1" edge="1">
          <mxGeometry width="100" relative="1" as="geometry">
            <mxPoint x="290" y="185" as="sourcePoint" />
            <mxPoint x="350" y="184.5" as="targetPoint" />
          </mxGeometry>
        </mxCell>
        <mxCell id="l3emcrf3xsV27DRF_MyF-10" value="" style="sketch=0;pointerEvents=1;shadow=0;dashed=0;html=1;strokeColor=none;fillColor=#505050;labelPosition=center;verticalLabelPosition=bottom;verticalAlign=top;outlineConnect=0;align=center;shape=mxgraph.office.concepts.upload;" parent="1" vertex="1">
          <mxGeometry x="377" y="180" width="48" height="55" as="geometry" />
        </mxCell>
        <mxCell id="l3emcrf3xsV27DRF_MyF-11" value="Created my own repository&lt;br&gt;and uploaded instructions" style="text;html=1;align=center;verticalAlign=middle;resizable=0;points=[];autosize=1;strokeColor=none;fillColor=none;" parent="1" vertex="1">
          <mxGeometry x="321" y="242" width="170" height="40" as="geometry" />
        </mxCell>
        <mxCell id="l3emcrf3xsV27DRF_MyF-12" value="" style="edgeStyle=orthogonalEdgeStyle;html=1;endArrow=open;elbow=vertical;startArrow=none;endFill=0;strokeColor=#545B64;rounded=0;" parent="1" edge="1">
          <mxGeometry width="100" relative="1" as="geometry">
            <mxPoint x="480" y="190" as="sourcePoint" />
            <mxPoint x="550" y="190" as="targetPoint" />
          </mxGeometry>
        </mxCell>
        <mxCell id="l3emcrf3xsV27DRF_MyF-13" value="" style="points=[[0.35,0,0],[0.98,0.51,0],[1,0.71,0],[0.67,1,0],[0,0.795,0],[0,0.65,0]];verticalLabelPosition=bottom;sketch=0;html=1;verticalAlign=top;aspect=fixed;align=center;pointerEvents=1;shape=mxgraph.cisco19.user;fillColor=#005073;strokeColor=none;" parent="1" vertex="1">
          <mxGeometry x="580" y="160" width="50" height="50" as="geometry" />
        </mxCell>
        <mxCell id="l3emcrf3xsV27DRF_MyF-14" value="" style="shape=image;verticalLabelPosition=bottom;labelBackgroundColor=default;verticalAlign=top;aspect=fixed;imageAspect=0;image=data:image/png,iVBORw0KGgoAAAANSUhEUgAAADIAAABICAYAAAC0hqYWAAAAAXNSR0IArs4c6QAAAARnQU1BAACxjwv8YQUAAAAJcEhZcwAAEnQAABJ0Ad5mH3gAAB8KSURBVGhD7Xt5dJzVleev9lUqSaXdWixZ8iLLlmXjFYPxBsEQIAuhQ4ecTMKcMYEMSUOTExqwCZzQnUBmpkMIPdNgmxCWmCQsxvZxwPu+b7IlWbJs7VupdtVeNb/7SmXLdNI4Z+aPSZ95Pk/fV1993/fufffe3/3d98qaFBv+AzTt2PGvvv1/Rf5fa/9hFPk/DvbrfVgzdvy/08aPmn7zX6SI3KrRXBVJHsw8/Odekrn7yvGzN/JC+tKYQPJn3D1KuqtD8jTJv+Nu0IhTaT7ftXw+HxKJhDrPKDFe92gseo0Scp7p/6Z95mI0Eh07+5z2Z1929Yu/2LVEqWg0CqPRCK1Od2V+pMficTXjRoP+yiR+9vhvhLpionHTLm3s8hXprnw9fkRe1ujk7+crIl9HIhF1bjab1VGaeowW6urtg9FsQnZ2Nkz6tAKZrga78vZrBQ2HYwgE/cjNzZbXsKWf0ihXuXr3n1VkbAI0GFMkmUxeGepPtdHRUXUUCxgMBnUe58xLZ8QoJeQFMo6WZ8OD/Th96iTONzVhaHAQOY5sFBYWorCoBLW1kzGxZvLY3UAoHAaNmnbzVFqJTFfCXRF+fLtWEaTG7qWr/LuKaLVXw0iUisVisFgsSjF5UPqI241dO7dj68ebcGj/XrhdQ8jNzkJhQT68HjeF1cPnD8JgNGNGQyMW3XQz7vzi3aiomsg4CVEHmZKrSlztf0oTKqKUkK5BSvS6HkUkJvR0GXEv6TabTX2mJdHb24v1Gzbg+LEjOLBvD7wjI6ifVoO77rgdX7z9Nsyor1OKe70+7D94CDt37cW5lgtwe/2Y2TgbX7n3XqxYuUKMoRTRanUUXqeOGTTKNCXkFQXGiXy9iojwJpPpGstIe/fdd7F+3euYOqUWXZ0diEfCWLxgLu6/76soraliEIyiu7VZKe105sNgzwJsWfD1DWLDm2/hDx98hBBBY/e+/RQr7VZKES3jTJQYs0omRhRIU68MWMsZnxpThF9dr2sFg0FljTNnzuCHP/whioqK8IVbV2D/7u00WxQ3L16Iu2kJxKPovNQGm8kAu82sEE4mQ9xKazBBb7Yiy5GHk2fOYt0bv8HW7Tvxi1/+Crd+4XakEkl4PD7kOgv4TJQTaE6DCptY7aqgV880EltyvB5FhoeHkZ+fj/7+fqxfv165S2VlJQb7urF3+1Y8+9SP0LBoPkJ9Pehoa2F82JDDHvB5YSEYhGktC62R4KBDIx5YaB1nfiGCkThWP/o4CkrK8J3vPIjZc+chGo5CpzeqLiYQRZSAY4qMV0YpMKbItf7yJ1pGCWnbtm3D/v37lbucPHkSmz76CL/65S9QXzcZ7o52uIYGUDezHiWMDRMRLocBbzLqoZWRkjHotSlk2Yywm/XQpWJIxSNYcvONCijWr3tNblIoGPD7eE7YDxMIZOBxSny2Ky3YPleRjBKHDx/Gc889R9N7MMKgPnHiBEpLilFC5Bnq7+PMJFBWOwmu3h688uyzePrpp3Hk6FFEojEYTTK7KYVQNovkHCut2YWtmz/ECBGuvb0bGze+i327dqr79HrJDSminYh3NSr+vaZbs2bN2rHzP9kEAltbW/HEE0/A5XLh61//OoqLi5XvlxTlo9RhQbbVhLxJ1Th38CBeevFFHKUCDocDZeXlKOS9Rvq6jglD4FtiLZmQPBRVcao12VBUUoRAIKjGW7p8Be83ycjpoFfmHJv2cS2jHCFBfXtdMfL444/j0KFDuO+++1BQUIC2tja4mTvam89g3cs/gwExjAYD+NWvXkFXVxce/u5DmEkXcw0PcfazEAqJ8DEYONMC2zHyM5l1vSULGlsBDLYcbNjwBg4cPIzX17/BQfUKjRj70OgNFDqtSMad0gKnrxLnFCp/rmtJkzipra2F1WrF3r17ceTIESWwzHqcGT7oD3BELRpnz8HffuMBzFp8sxImwddHYkmEowke+YkBnM1nBP0y1MfDhBmPx1BVVcV848Wljg41pnwvVhwv+rXtWkspw0lL8iRJ1aSnNElomTK1nL3uix2IBUcZoGa0nDsHM/29sqIcvVSkurICdvq8TpfibGtQW1OtLJEM+nDm7BkOn0JrWyuSfJeZk+D1+9HbN4DRELkbE5+wo2Farb3tAnJzSGXy8xAjbRG5NWQDUZqEUqguQmuJUDrp/CSqJdUI6aYVPxTMTjEWYlSic6CL56TtYq9AAL959X/ixO59sOkMmFpTg0goBL/Xg3wO7My2E/vDdJsQ3xrBxIoSCuLHpfYWTCwvRUn5BGZ7Fy60NCO3qJjgUIaW1nbs2nOAuSQfvkAIDQsXwO9zc5KakGLcjfT1jxlBg3A8iSBF8YxGEeUQWp5L17FHEhEVY6KqWE8mHnpCZZRwOBoNoqS4AHq+yX3pEt557TVs+OUrsDFOEswF7xFZzjefxYQJxcjLycLI8AAHJHWnE4VDAcKmB1aLEdW0jKO4UGV3m9WMw4yvY8zg9EVMr5+BU6fPYsvWbZg05wa0M8Hu2P4pvK5huJin3mGs9J5vUcok4wl6LIkpvUABHxVIBmNE8jiMOqNSItO0sSRvZuAFOfs6mtoihguFse293+F36zfgphvmIOB2oYUKJBEny7Bi996d2LN7h8rc4sdWq00x4zDdQrqfQHB09268SATbuPE97N6zFx30/ThhOycnR91zkAjH4MDPfvpTvPvWW4jR0npa4LdvbsTrL7/M4iaGHJsVCcrCTJqmXhQtImjH2WeqRDiWZubSdE+uXbM2yRyQZMLKtViFJeLA+x/i4zfeRsIXwOwZ9eggl1px9yp8+f57sfiWxeju6UQPLbbwhkbMnF6rLCJJUpQxmy2Km7lcI7h06bJixrNmzcKqO+5gho/AkZfHWChQhPPwgYNY/fAjWLl8Je752wegI5lsY37q7bgMAy1SP7MBcQqdFJrCIDbotUyqjC3GMBiTIfqbxUDqQzfUpug2UaKGw0pSxwf8bRfxwesb4G5tw5eJPjvffx9fvm0lbr91Gf7w/m/x4ce/h8ksDDWB37/3rsoJ4dGQmuUEg1Pyi8RdXV0d/oY555FHHsED3/wmSvnZQ1SK8L6GeXNRM2UKNm/ejItt7Sr2qDnOkiE3TpqEAk7IR2++gX2bPiITsMBBy8doCQEpjUnHccSdU7ARgFgZKotI7NAuZJ7ilPTJHX/4AO2Hj6Ha7sD8STUY9Xkwn5SjmnHRcv4M0SGBpUtvwuOPPYr/8d9/rjBB3iU1h7hZkAgnsy1QKhXlJMK2lMShgQHyJwPcZAYDPT1YdOON+MFjj2HtmjXo7+5FilTf1dmJBnK4pQ0N8HVcwpZ33ibg+DhGnNbWIqYSC2t9KiVoa9IY1FGaNkq/NzFwZHWimb68i/S6kgRvyfR6jFxow6LySrSfPAGbQYO/e2Q1Vj/4LUyfVouGGdNQP7tBEUih3xay2uxsBxzsNrtdCR2jmw4NDatafpiuls1q0cmEmqDmhZNrsWzZMrS1dqHn8mXCrQ52ShUZHEA5obqccXf0j3/E7g/f50wlYCGbjpKbycwJdZGJzyghTRtjxhUz0RFxhqZtP34SjZVVmEtrnCdBLLaYsfOj9+HpvITaslLOQhLlRLbGWQ3obm9TGVrgL8AcMTgwBJ/Pr6xjNJpUnohTmeKSUoww8XX39MJAIbOo7BDzk/CxBx74GvMVx/d4oSPz9VzuRHVuLu5ctBBOItamt2kVeoUAbUogls2gqtMUM39cfZam6Y36U/kGCy4fPYTv3/MVrJo0FQ2sF+JdvXA6sjCcDGF/VytGy514/o3/RRaZi3feeQczp05HNa3lZkKzUtl0PooQXbRksKwjOD0RUpHsnFyYSS47WX+8zef6BwaVomarBeUTynHTwiWoYx3/+5f+G44QZJZUTUaOwYhBAk3QbsOvDx/At9euwVe/9yhTC0tmuqCDlh0l3FsITinJ5BxLb2WxI4s6fZwhYhZyiD56BqRFmCfzQI7NgCLO4qHWC/jJ40+gP8ZERKo9Z9pMRQDziEKyyGDke3JycxAgMQwwTix8xp6VrVjzMGFXclXDrEbU0ULCqK2kKb3dffjxsz/Gf7rnq3APDsMqLsp0YOSE2OmOZlrbRPDoa29XUK0xpLmaCC7uLOfpPE8QYxHLf3GcO34cWZwpJ2cq6fETEfQIMcGR2aGGWdlPGtJy/CwOdviw9J4FpCOT4WLWFqQySCFEHxfkihMwsrKyVIwMDQ2R8rtx/vx5tHOiTjL59fUHMG/BdFVh7tmxF//w+D/wecYT80gen7NReAMpjJ2Tq6XyTjLni03n0dXcjPIZs5Q1xRPNrDgFIfVUTilCD0eE5mo6dhwO+p6DOSARGYDJboU/FkZqNMEBCnAjLVBMDuUJHEBplhP0H84KiSEVSXFmxComiwWlZWXqOEiX8zJehD0vuWUplq+8jZZxYZSzncMYkLhaNG8xvvHQf8WbP/4Jjh09hhkECUoHHV3SzhkXWJ9YWIQmIlgn00J5/SyVfFPMG4RChZYKxtjEQHD19aKPmTeXAhCcFOVOEmZTrOgsRgOCwyNIuXwoM2WjxORAd/NFXDh2CmaLrKgYVJ3R3NyCTgaqBLmsvPjp47KeNUjU2rTpY2zeuoXQ60WQ914gGubm5uFbj3wPXWeasHvXHgU2tdXVih6JMhYKF+Cz1cUl8A+50MMkSVE58zrEWCJLi5EJZBrnK4mB7m7EWNjkiLacDS0hTrDaYNKT4xiQHCX1GByBI6nH5KJy+AfdaDpzDha6nKBUMQfL5Sy3tLTiOF1UfLe0tFQF4+23r1LxIDXMps0fY9269Th67JhanEuS/j//3E84AV1obJyNCrLqEOuaOEtcMwV2EDQKiHARfxB9nd2EYc4y9QwJbWETb8hYRE3AyOAQzLRNNi0SZYBrmf5HJf2T8EndXMzgDJKG2lJ61BSX40R/L04cO4Gbu7pVfFj5/RwSwBG3B6dOnYKVaFM7eYpyI4mX1atXwyArkmTYeiJSNuMjFvBjy8dbsX37DjgZsMPM7E1kwXlUxEGmLXReVidDjBFpHlolo4hyZxGeMZRpzCsMah9ZKgewMXBSVMQogCXZk8jjiSZho/Ahix1NLLBaRv04MdCPD3bswvubtyGPMBx0+2AvyMfKL66Cgez3k0/+iNZz55FHdhAJRlFYUcuE5kAiqkV2fhm8lwfw/JPP4u+/9xhmN85DYWUNzg24carfjdyaOuSUVWGAKBZibjKTX4m4EeHxwrGoi475RRiFZUxJaeTnegQ9EYTpIjYCgCE6SlfyI4ssdSgUw4RZC9AW12M3ff5fmk7jlbbTSC2cBXNNLV589XVseHUdTrW040JfH5BlwbJVKxgzfrzwzFq8tPYFhFxhtB5swvFDjKG2Efzk0bX48tIv4fVfvAlDUIOS0hpUzbkZ7fo8fHhpBFs7XOiMGZBXXMYaZJQCM/gpqHfUTWnTsRGltcQkDGEqILU9LS1fmBkbGh0LK+YIM6mAXp+NEFFphNh9/lwbmvpduMyHdZz9ujm1SDns8HcN8S1WvPDzV/C1r9yJWfPqsXnLJhzf8Qm6TjfB4Af2t/Rg228/prVKYcwh62VMnT16FAm61Q1kwHWz5+LA0ZPImzIdZY1zMcLkebLrEpyc+SUOi1q9FGnFjXS0jJKeXS85jqeCWukIEYWoijXPhjjt5+GDSXKmiMmKS8EIWoNh/LG9A13MNjnTGlBRP4+VXTmLKAMzDxOesww6ez7dyclSOBc6P+PIG8OddXPw/VV34h7ytdJQEOWsImvNWtTY9ZhekIVbZ9fhjvmNqC8thp5juHr6kZ2XjeKacvQnAmgLDMJjJPJpWe9TWhHfarZRclFG4oxC81SVumOaaBN0tqwCB2K0iItJKUahxaVOk6Kcc3kRKi5G/g1zUcLZ82tMaG7pYinbB7cvAj+ZtTa7APuON+HNN9/D8X1MqhEtyvU2FESSKCG1Xjl9OiqtJkQGuuG6yPrdN4Jihw35pOdhrxvTptSyThlF32AvQiyZTbkWaB0m+Fg6RymTj8mRCI98ZzHFTSc/qRiFdl1TIbKkYj1doALbyxIySt7ljWlwadiLQd5XumA+PLkOFeBnunrgp/QmrXApHbwkeTnlVfClDGhu64Zn2I8imxM2BnV80IMivmvRjBkoZKXn7u9BX/dljAb9KhkaCK05hQUIkfgZ7VQqQojtvcyiTIOC/BzOdApGyjQ04mXutaOictKYRYQ0CrOWuiftatL4jQZllRORIww1HEOExEwnRZaOHIxuZizIQ4efRU9fFwKcBlnK0TARJRg/VkJrv7BdRy7shcXEDTOCtMQoe0JrhDHLgZbOLriEO/H9DYtvwuS589FBlPvdjj3YcvAwjtJK2iwTnDnZiDDz65nPCohGwgBtlix09w3DnJWLSVPqVEDIvqOOrpWUEn28IlEKb3Pko3zSFAyJv7JbCZtZRgs0zLA+ukKCaGHOs8LCrqENo0SlZDRIE5PxslYY5QDGvHwks3PQG0vAy3omlF+Ic0xchwaG0ct3Fcyeh7se/gG+8aO1qLrlNgQLymCtmwFNeRFYNyIVCcGZ0KAiZURxTA9LhFbjvx4+b8jKQUXNFKVIkLRFwkJKDx3TeaZpIwGBMh2cEyowzIEHOSOyumdmFMWZ4FKjAdgtBhhtRozGQ5yJOPLzcpDNpBdgFShMdpj39fPcw9dfjsbRSUp/LhrDe6fOwMek1k1LXQjF4bE4kD2lHs7pjai5eQXuWf0w5ty2Au5wAP3kU4UaI2qz8pFLV42HE4wZoJ9MOkUOlkPEEw1inNx0oyVEo7HGJK4QGMvuuANFk6rRxqydItTNnjoVuYyRwfPNcIpPkv97/V6VnSO0oibBXMpkOcQytaSgCBbCa4J0Il5Sgg/4zGuHDkMzowHLHvoevvR3P0QgOx8/XfcbxOgmeTXT0O4JIEzY37Z/DyomVpDtklnE6ea2XOYzM7L5zrMsmc8xFr7/7LMwEFnFiXIdORj1+2CS7YooSa2gGrtWVj9Es7rZjViwcgUue0fQ6/VgMhNentmi4NFMd7HxXAhhnObnZNMyWpbIFg5qoj8zr1LpkIaMlXGjr5qI3FmzUDh3HlzMR9aKKpRPm4Felwcfb9tB1kBGTYW3fvIJa3Ejs/8oQsMexPwhhAk4AQrcMRrE4e5OLL/tC6Tv01U0MywJEnQ48jDBK71UimNW0doYaH5SgZRRjxVfugtB1iGHW8+DGYU1AwM4QGoQjMFqsLF4Yr4hE0hSdGgsrAnssJLiGGiZBK0UZCB66FojiRS6yHLP9vTgCGuRIbLeaVOmopIB3372LDz9fSzcUti5dTO0gVHoSGMKaNGJkyfDUV2FSFE+eljQnQn5sPyB++GoKAXnD0HeK2YxEH794SDlUEsmaUXEGm5aQWqtqTfMwZK770IPbzrYfA5V06YhGScTplX0jCOKzAd0VChd2tIsivbriWYWErhsexbyCgqQz9JWS9P3sbDasXsXNm/6CF0X25HPuBrquowDOz9FPzO4lky7tqSMdRBBhNbs8/mw5fgRvL13F7a3teJsIIYRvluiQiwgWxHqjPklHJa9/zFzsOmeeurJtZIpJX8ayDprampY0bXg/NnzqGSctJK86XKdSNhYJ4eJ+TSvELlg2IuA343ykiLYJQ+wCIsQeUykD/K2KMvgCHPGQHcXWs+eRkdTE3yDA7h8oRXNTWfo3yyjc4RUhnH+1Fl0s5aR8jtAFpBbVYaFd96O6Qvn4lBTC2qIbkXOXFpDFtYjhF8dIrJNTgYiqqjuGu5P5TkJnXSH9MZnEhv/9XWs/6efw2FzwMsqUF9ageSEcvSN+KEhylnphgPubrqkl3WDkYpkwRXwsIgaVHV2lsWMJGc7wRnMy8vFIINWQ9crYjHlp5uNkgrllRcjRotaDVYqdg71kyZj9be/hdrKYtRMrkbV7AYhWLhx+Sp88UtfwQ8e+S+KGHpdfchz8j3+MOzMU1KdStOtfeaptQaDiSyTARQh3tE6ucy4ouaxs2eYWwLkX2YSvwJyrCBSLHct5EHhOOsDfRQXT52ErdCJqkkTMbFiAqZVV2L29GmYP6sB82bNxJLFN2IOz5ctuRmzGmYhxDjSM9NbOca506fxg8efYAFmw7Jbb8W3//ODKCwpVOtguc5CBDlxFy5cQmvrBSxduZRZ30BLBsm7LERRMgzmpwxz1Fv40oGebgZ2GbSsCN2EtuLyCqx+8kfodI3g1dc2oNiejdx4jNGRRETWkmgFC7HdosuCfcli/M3Xvo67GVul+XmQCkHqh3QYpgmfjCT/ErEkASGCc6wWLbz3NN3tuw8/hGxSEanzRwI+nD52GD7WPQVFpbCTId+6fDleeOln6Lx0CblELwORU94XJ6iMb9pEKoL8UieS2rBsDsBmNyOeiiNGEda+9BK++dB3CZtutecdIreK0tW0dicDMIfUPxejXsYFpZ04pkSC9T7/wuUe4huY5f0j/BxXMRFiQs0vKUB3bxcuUxkN/fzD37+He+66HZfamkk/gvjqffdiyox6uGl9zhwa58zE6VPHECayyk92dJymWCxFtpyntvDipCpxWlAr5CzFmZYVbtmpyvywK0FUYn7CUpo8i0Epa7myZ+4sKiSZs/MFevjJgMOE5xDRRnipijCFLNRMqh6+KyUr/fyX4NFkYc5h+Szs1cIckEUr9Pf2EAV1KJtQLEvQasO1j6Aw5OYEcHwTK87pdVPVL48EYiXAJRS0jEVZAJS4lsJKm95wT/+TJn/H99JiZm0OnIxH1ICekWG0XWimnHFUlpWqml62qyM0tdwvKyjSJNHKFMmPbxKK4KlfmyCLLmkkVMsWhJSqo0Q32aMUBXqYd+S+OXPmqD1LaRs3boTT6VT7l7JulmmywCHXZD1N3sXRZHhpaWUyS8PyV2bYQ0Ya8HngHhlCYfEE8iwHRrw+yJ5KX08nsYHKud1qSchilN9epZ8XRUQBKxm07HGkEZHewoFF2TjdSpZYN2zYQOSJY8uWLdixYwfKysrUzvE05jDZBn/rrbcwg6XAlClT1LPS5DlZnJOFDVFOlFKboRmLXPsvrVLdlMkoY4JrPXcWe3dvx2B/N/JYGFVVsnxlNszOtnM2h9XurDShMfJGWREUQJFzOWbOo1H5lZHknDAh1Ie+vl5MZ/ElC9r333+/EvLTTz/FunXrlJKNjY2499571azLZEgXJYRfSVOW57kmER8dGyIjembBPn2UWv53H3yEQ6y1t2zbhvZLneRaMczgALLRkiAn4kvwT//4AhYvWjj2FkYFXU+k18mKIYWXqyZm8HfoKr/+9W/UuvDO7Ttwz52r8POXXlS/wJMm1hJXHRgYUErJIl95ebn6TtxP3Ey2MkQxUUhcV5puzTNPrxUlpPoSL85YSDUetLTZtKlTsHzZUsyYOYMJLgeXL3fQ1YZZ8XWR+Rbg8sWLmHvDDWigC8iTavmf06O2yWh2yVmyyC20pre3TwlaM2kSwcKHV15+mWWsU/00RBbFZcZl/14UkEU+OZcmfDDEUlzcSRTIKCLKilWuKjIm/tWzdJMXixvIymBBvhOrbr0NNzF3VJPhGklVfMzUrS0tWLRwIRYtWKCelNgQn9VS8ASZruyhqN9i8Z+PAsmu1mT6vJcsu7ioCBMnVqrdLQleUUb2IDMCirBiJYkP2UiVJhNhJ2iIS8l3cr+s86akp6THx/e46slEPJVgj5M9RlPxVIQ9xD6qjgleS6Ve/Od/TjEzp4ZGXKkkPw8M9PNvIuX1jKRIU9T58PCQ+m7P/n2pHz39dMrl96eefGZN6sfPPc+r6UarpCh4igGsPjM/kIEkr6sTStI2EB+WoinzOdOkLFZXJKCk806JnnQESQfq66fTVw1q+0Ca+ikfv8lmEZRhqTk5JH1sJaxD7MKCycvE0oFA2mUot0I8cRk5l575Yej1NG16xzoj0tXj+K5qfDnKX54LkGa6XJtYUYFs+m5Lc7P6LH48QnrjdXsVGZW75IfQ8p2DQX3i+HGsfeYZvP7av2ISY0Xc94qLsEkAi1KZQL6eJlvUKpXIcGPypo/XtIwSchTFMl2+SaF2Ug3mzJ6Nnu4edbcIlJfnhIM+baCfywvtNpv6zsnrskVNf8Cjjz6KW265Rd0vMZDJQXQVdcwodj1NZanxCow/TzelAi8Q0cZ6BuHkenxsz3tC6QQcPXIE//Lqqzhz6jSTqF+9xESmKk12pSRxbtm8Ge1t7QoJn3nqKYJGlfpeglpgNYNEYqG/pGkiDEQlKgeVowx+9bO6Ip/UX1FOunxUR7bOrg5MrJyodpyef/55tJFyy91qT5ExIjPtIFeLk0x2dXcrjiRu9tjfP4YHv/OgQjVxrbgQPx7lfrGInGfi5nqaJpxRRPp4JdRV+Zw+ZgT/rCKy3G8hdMp9kgv27dmrtuG8Hh9cwy4VsDGWAIVFBfAHApg2vQ7V1dWYv3C+slIsGlOCixt9Vmi5ft2KiEXUiQgvR/nAc5UaM9Kmr6qWvvnqV5w4znQnKsoq1GfhULIdJ81PTpblyFY/TLNl2ce/hs+n4PV5FRcTd5Jfd0sTy2RiQ3jU9caJRrB97Fy1cWP9VbXP/d8Kfx0N+N8DEDPpz9s3sAAAAABJRU5ErkJggg==;" parent="1" vertex="1">
          <mxGeometry x="590" y="210" width="50" height="72" as="geometry" />
        </mxCell>
        <mxCell id="l3emcrf3xsV27DRF_MyF-15" value="&lt;span style=&quot;color: rgb(0, 0, 0); font-family: Helvetica; font-size: 12px; font-style: normal; font-variant-ligatures: normal; font-variant-caps: normal; font-weight: 400; letter-spacing: normal; orphans: 2; text-align: center; text-indent: 0px; text-transform: none; widows: 2; word-spacing: 0px; -webkit-text-stroke-width: 0px; background-color: rgb(251, 251, 251); text-decoration-thickness: initial; text-decoration-style: initial; text-decoration-color: initial; float: none; display: inline !important;&quot;&gt;&lt;span&gt;&amp;nbsp;&lt;/span&gt;log into the instructor&#39;s Jenkins server&lt;br&gt;&amp;nbsp;and run the build and test &lt;br&gt;for the application using my repository&lt;br&gt;link and token&lt;br&gt;&lt;/span&gt;" style="text;whiteSpace=wrap;html=1;" parent="1" vertex="1">
          <mxGeometry x="570" y="278" width="220" height="72" as="geometry" />
        </mxCell>
        <mxCell id="l3emcrf3xsV27DRF_MyF-16" value="" style="edgeStyle=orthogonalEdgeStyle;html=1;endArrow=open;elbow=vertical;startArrow=none;endFill=0;strokeColor=#545B64;rounded=0;" parent="1" edge="1">
          <mxGeometry width="100" relative="1" as="geometry">
            <mxPoint x="670" y="190" as="sourcePoint" />
            <mxPoint x="740" y="190" as="targetPoint" />
          </mxGeometry>
        </mxCell>
        <mxCell id="l3emcrf3xsV27DRF_MyF-19" value="BUILD AND TEST IN JENKINS" style="text;html=1;align=center;verticalAlign=middle;resizable=0;points=[];autosize=1;strokeColor=none;fillColor=none;" parent="1" vertex="1">
          <mxGeometry x="750" y="180" width="190" height="30" as="geometry" />
        </mxCell>
        <mxCell id="l3emcrf3xsV27DRF_MyF-20" value="" style="edgeStyle=orthogonalEdgeStyle;html=1;endArrow=open;elbow=vertical;startArrow=none;endFill=0;strokeColor=#545B64;rounded=0;" parent="1" edge="1">
          <mxGeometry width="100" relative="1" as="geometry">
            <mxPoint x="849" y="320" as="sourcePoint" />
            <mxPoint x="849" y="380" as="targetPoint" />
          </mxGeometry>
        </mxCell>
        <mxCell id="l3emcrf3xsV27DRF_MyF-21" value="" style="shape=image;verticalLabelPosition=bottom;labelBackgroundColor=default;verticalAlign=top;aspect=fixed;imageAspect=0;image=data:image/png,iVBORw0KGgoAAAANSUhEUgAAAC8AAAAvCAYAAABzJ5OsAAAAAXNSR0IArs4c6QAAAARnQU1BAACxjwv8YQUAAAAJcEhZcwAAEnQAABJ0Ad5mH3gAAAT/SURBVGhD7ZhrTFtlGMf/QxPujEuycZkDRuQyYR/mQtEEEVmZiiHeoptscwNaSoEB+s1opsQZY2KYFBjXQphs0bkgcS7ZmDJDGCzCZE6jU8dQKYwxRjc6Lro4+x4ebA+c9vS0TSoJvy/n/zwn7fm/73kvz3tWTc/+dQ/LFDe6LktWzLuKFfOuYsW8q3DaOj83N4fOs9+g48wZDA5ehX5Sj0m9nrsX4O8P/wB/REVtQPpWOVJSkuHu7s7dcwSHzU9MTODgRxqc+PIkZmdnKWsdT08PZGZmorhIjYCAQMpKxyHzmsoqNGqbuV63B9YIRW4O8lV5lJGGXeb1t/RQ5qlx6dIPlHEMWWIiKivK4ePrSxnbkGyejWdFngojI6OUcQ4R4euhbWxASEgwZcSRZJ6N7xdefBlj169TxrmwBnxy9Aj8VvtRxjo2L5V3pqeRo1TxjG9KSIBSkYvY2BjK2E509INQKHK4IbPA0O9/QKUutHkO2Wy+oqISl3++TNE8u3ZmobRkH9qOH0OTth7h6x+gO4CPjw+iY6KRkBAPXz/TWA4NDUFDfQ3a247jtZJiZO99le7M893AAOobtBRZx6Zho9ONYGv6kxSZ+NxoOsas11mPsTkRFhq65NUbDAbohnUIWxfGNWyBP4eHkb7taYrm8fbyQsfpk6LLqE09r9FUkuLzzz1+u9nGExcXKzhmmWHWUHPjjLt/3yVlgg3R2rpGiiwjap5tPO1fnKCIz5Urg6Ts5+rQECk+be3tpCwjar6rq5sUn6CgIKQ8lkyR/Tz6SBLCwkIpMnH71m30X7hAkTCi5r/u7CTFZ1+hmjcR7cXDwwOlxcUU8TlrrJWsIWqeTUAhMp7JIOU4GRlPcY1YzC+//kZKGFHzNyZukDKxds0abkVwJusEhs7oqPVdXNS8UBngjHJ2MZ7e3qRMjF4bIyWMqHn/1f6kTNykOt2ZTE7cJGXifrf7SAkjap4dIBZjmJriVgNnwZbjYZ2OIhNCzzZH1Hy4sVgSouf8eVKO09/fT4pPZEQ4KWFEzUdERJDi09p6lJTjsAONEJEbIkkJIz5sLPzBt319+Lj1CEX28+mxz9DTK/wWozY4OGxkSTLjATqAIj4H3nsfVdU1FEmH/Xb/22UU8QkMDIJMZiqXhRA1z9ZzlUpBEfDKju0oe2c/goPXcnFlVTXS5NtQV9+A8fFxLmeNa2NjOFRTi9Q0OfdbS6jzlYIblzk2n6RSn5BzD2ZVYfmHH2Djxji8tD2LK5fNSX08BdVVGor4lJS+jlOnOyiyDKv5v+o4RZFlRHt+gaKiAu7K6nKF8fA9ZZhGtaZiyU6blbWD1FLylKY3aI2iwvlniSHpDKtUFRirzC5OP//cszjwbhkGLl5Ed/c5LudrPP3v3rWT05aIe2gTKWGSk5NRV1NFkXUkfz3IyVXiXE8vpysOlkMuT+O0rVgznySToeZQpc3lh2TzbDfMVxehlzYpdpBOiI//75NFgTqfu1rCknl2EGfGxSapOZLNM2ZmZqHMy0efwM7404/fkxJGyPyWhzejrraG+4ImBZsnrDnsIYdbmvDWm29w67G9sAM2+4/DLc2SjTPs6nlzpmdm0NzcAq22iTs4i/X85i2JcFvlhuzsvdizZze8PD3pjnQcNr8A+35pMNwxHirCKCMMqx69vb0s7tpScJp5V2DXmP+/sGLeVayYdxXL2DzwL0uSr8e2S1ixAAAAAElFTkSuQmCC;" parent="1" vertex="1">
          <mxGeometry x="377" y="112" width="58" height="58" as="geometry" />
        </mxCell>
        <mxCell id="LCJb7GotNwv-lG0VMmux-2" value="" style="shape=image;verticalLabelPosition=bottom;labelBackgroundColor=default;verticalAlign=top;aspect=fixed;imageAspect=0;image=data:image/png,iVBORw0KGgoAAAANSUhEUgAAAC8AAAAvCAYAAABzJ5OsAAAAAXNSR0IArs4c6QAAAARnQU1BAACxjwv8YQUAAAAJcEhZcwAAEnQAABJ0Ad5mH3gAAAT/SURBVGhD7ZhrTFtlGMf/QxPujEuycZkDRuQyYR/mQtEEEVmZiiHeoptscwNaSoEB+s1opsQZY2KYFBjXQphs0bkgcS7ZmDJDGCzCZE6jU8dQKYwxRjc6Lro4+x4ebA+c9vS0TSoJvy/n/zwn7fm/73kvz3tWTc/+dQ/LFDe6LktWzLuKFfOuYsW8q3DaOj83N4fOs9+g48wZDA5ehX5Sj0m9nrsX4O8P/wB/REVtQPpWOVJSkuHu7s7dcwSHzU9MTODgRxqc+PIkZmdnKWsdT08PZGZmorhIjYCAQMpKxyHzmsoqNGqbuV63B9YIRW4O8lV5lJGGXeb1t/RQ5qlx6dIPlHEMWWIiKivK4ePrSxnbkGyejWdFngojI6OUcQ4R4euhbWxASEgwZcSRZJ6N7xdefBlj169TxrmwBnxy9Aj8VvtRxjo2L5V3pqeRo1TxjG9KSIBSkYvY2BjK2E509INQKHK4IbPA0O9/QKUutHkO2Wy+oqISl3++TNE8u3ZmobRkH9qOH0OTth7h6x+gO4CPjw+iY6KRkBAPXz/TWA4NDUFDfQ3a247jtZJiZO99le7M893AAOobtBRZx6Zho9ONYGv6kxSZ+NxoOsas11mPsTkRFhq65NUbDAbohnUIWxfGNWyBP4eHkb7taYrm8fbyQsfpk6LLqE09r9FUkuLzzz1+u9nGExcXKzhmmWHWUHPjjLt/3yVlgg3R2rpGiiwjap5tPO1fnKCIz5Urg6Ts5+rQECk+be3tpCwjar6rq5sUn6CgIKQ8lkyR/Tz6SBLCwkIpMnH71m30X7hAkTCi5r/u7CTFZ1+hmjcR7cXDwwOlxcUU8TlrrJWsIWqeTUAhMp7JIOU4GRlPcY1YzC+//kZKGFHzNyZukDKxds0abkVwJusEhs7oqPVdXNS8UBngjHJ2MZ7e3qRMjF4bIyWMqHn/1f6kTNykOt2ZTE7cJGXifrf7SAkjap4dIBZjmJriVgNnwZbjYZ2OIhNCzzZH1Hy4sVgSouf8eVKO09/fT4pPZEQ4KWFEzUdERJDi09p6lJTjsAONEJEbIkkJIz5sLPzBt319+Lj1CEX28+mxz9DTK/wWozY4OGxkSTLjATqAIj4H3nsfVdU1FEmH/Xb/22UU8QkMDIJMZiqXhRA1z9ZzlUpBEfDKju0oe2c/goPXcnFlVTXS5NtQV9+A8fFxLmeNa2NjOFRTi9Q0OfdbS6jzlYIblzk2n6RSn5BzD2ZVYfmHH2Djxji8tD2LK5fNSX08BdVVGor4lJS+jlOnOyiyDKv5v+o4RZFlRHt+gaKiAu7K6nKF8fA9ZZhGtaZiyU6blbWD1FLylKY3aI2iwvlniSHpDKtUFRirzC5OP//cszjwbhkGLl5Ed/c5LudrPP3v3rWT05aIe2gTKWGSk5NRV1NFkXUkfz3IyVXiXE8vpysOlkMuT+O0rVgznySToeZQpc3lh2TzbDfMVxehlzYpdpBOiI//75NFgTqfu1rCknl2EGfGxSapOZLNM2ZmZqHMy0efwM7404/fkxJGyPyWhzejrraG+4ImBZsnrDnsIYdbmvDWm29w67G9sAM2+4/DLc2SjTPs6nlzpmdm0NzcAq22iTs4i/X85i2JcFvlhuzsvdizZze8PD3pjnQcNr8A+35pMNwxHirCKCMMqx69vb0s7tpScJp5V2DXmP+/sGLeVayYdxXL2DzwL0uSr8e2S1ixAAAAAElFTkSuQmCC;" vertex="1" parent="1">
          <mxGeometry x="196.31" y="102" width="58" height="58" as="geometry" />
        </mxCell>
        <mxCell id="LCJb7GotNwv-lG0VMmux-3" value="" style="sketch=0;points=[[0,0,0],[0.25,0,0],[0.5,0,0],[0.75,0,0],[1,0,0],[0,1,0],[0.25,1,0],[0.5,1,0],[0.75,1,0],[1,1,0],[0,0.25,0],[0,0.5,0],[0,0.75,0],[1,0.25,0],[1,0.5,0],[1,0.75,0]];outlineConnect=0;fontColor=#232F3E;gradientColor=#F78E04;gradientDirection=north;fillColor=#D05C17;strokeColor=#ffffff;dashed=0;verticalLabelPosition=bottom;verticalAlign=top;align=center;html=1;fontSize=12;fontStyle=0;aspect=fixed;shape=mxgraph.aws4.resourceIcon;resIcon=mxgraph.aws4.elastic_beanstalk;" vertex="1" parent="1">
          <mxGeometry x="552" y="410" width="78" height="78" as="geometry" />
        </mxCell>
        <mxCell id="LCJb7GotNwv-lG0VMmux-4" value="" style="shape=image;verticalLabelPosition=bottom;labelBackgroundColor=default;verticalAlign=top;aspect=fixed;imageAspect=0;image=data:image/png,iVBORw0KGgoAAAANSUhEUgAAADIAAABICAYAAAC0hqYWAAAAAXNSR0IArs4c6QAAAARnQU1BAACxjwv8YQUAAAAJcEhZcwAAEnQAABJ0Ad5mH3gAAB8KSURBVGhD7Xt5dJzVleev9lUqSaXdWixZ8iLLlmXjFYPxBsEQIAuhQ4ecTMKcMYEMSUOTExqwCZzQnUBmpkMIPdNgmxCWmCQsxvZxwPu+b7IlWbJs7VupdtVeNb/7SmXLdNI4Z+aPSZ95Pk/fV1993/fufffe3/3d98qaFBv+AzTt2PGvvv1/Rf5fa/9hFPk/DvbrfVgzdvy/08aPmn7zX6SI3KrRXBVJHsw8/Odekrn7yvGzN/JC+tKYQPJn3D1KuqtD8jTJv+Nu0IhTaT7ftXw+HxKJhDrPKDFe92gseo0Scp7p/6Z95mI0Eh07+5z2Z1929Yu/2LVEqWg0CqPRCK1Od2V+pMficTXjRoP+yiR+9vhvhLpionHTLm3s8hXprnw9fkRe1ujk7+crIl9HIhF1bjab1VGaeowW6urtg9FsQnZ2Nkz6tAKZrga78vZrBQ2HYwgE/cjNzZbXsKWf0ihXuXr3n1VkbAI0GFMkmUxeGepPtdHRUXUUCxgMBnUe58xLZ8QoJeQFMo6WZ8OD/Th96iTONzVhaHAQOY5sFBYWorCoBLW1kzGxZvLY3UAoHAaNmnbzVFqJTFfCXRF+fLtWEaTG7qWr/LuKaLVXw0iUisVisFgsSjF5UPqI241dO7dj68ebcGj/XrhdQ8jNzkJhQT68HjeF1cPnD8JgNGNGQyMW3XQz7vzi3aiomsg4CVEHmZKrSlztf0oTKqKUkK5BSvS6HkUkJvR0GXEv6TabTX2mJdHb24v1Gzbg+LEjOLBvD7wjI6ifVoO77rgdX7z9Nsyor1OKe70+7D94CDt37cW5lgtwe/2Y2TgbX7n3XqxYuUKMoRTRanUUXqeOGTTKNCXkFQXGiXy9iojwJpPpGstIe/fdd7F+3euYOqUWXZ0diEfCWLxgLu6/76soraliEIyiu7VZKe105sNgzwJsWfD1DWLDm2/hDx98hBBBY/e+/RQr7VZKES3jTJQYs0omRhRIU68MWMsZnxpThF9dr2sFg0FljTNnzuCHP/whioqK8IVbV2D/7u00WxQ3L16Iu2kJxKPovNQGm8kAu82sEE4mQ9xKazBBb7Yiy5GHk2fOYt0bv8HW7Tvxi1/+Crd+4XakEkl4PD7kOgv4TJQTaE6DCptY7aqgV880EltyvB5FhoeHkZ+fj/7+fqxfv165S2VlJQb7urF3+1Y8+9SP0LBoPkJ9Pehoa2F82JDDHvB5YSEYhGktC62R4KBDIx5YaB1nfiGCkThWP/o4CkrK8J3vPIjZc+chGo5CpzeqLiYQRZSAY4qMV0YpMKbItf7yJ1pGCWnbtm3D/v37lbucPHkSmz76CL/65S9QXzcZ7o52uIYGUDezHiWMDRMRLocBbzLqoZWRkjHotSlk2Yywm/XQpWJIxSNYcvONCijWr3tNblIoGPD7eE7YDxMIZOBxSny2Ky3YPleRjBKHDx/Gc889R9N7MMKgPnHiBEpLilFC5Bnq7+PMJFBWOwmu3h688uyzePrpp3Hk6FFEojEYTTK7KYVQNovkHCut2YWtmz/ECBGuvb0bGze+i327dqr79HrJDSminYh3NSr+vaZbs2bN2rHzP9kEAltbW/HEE0/A5XLh61//OoqLi5XvlxTlo9RhQbbVhLxJ1Th38CBeevFFHKUCDocDZeXlKOS9Rvq6jglD4FtiLZmQPBRVcao12VBUUoRAIKjGW7p8Be83ycjpoFfmHJv2cS2jHCFBfXtdMfL444/j0KFDuO+++1BQUIC2tja4mTvam89g3cs/gwExjAYD+NWvXkFXVxce/u5DmEkXcw0PcfazEAqJ8DEYONMC2zHyM5l1vSULGlsBDLYcbNjwBg4cPIzX17/BQfUKjRj70OgNFDqtSMad0gKnrxLnFCp/rmtJkzipra2F1WrF3r17ceTIESWwzHqcGT7oD3BELRpnz8HffuMBzFp8sxImwddHYkmEowke+YkBnM1nBP0y1MfDhBmPx1BVVcV848Wljg41pnwvVhwv+rXtWkspw0lL8iRJ1aSnNElomTK1nL3uix2IBUcZoGa0nDsHM/29sqIcvVSkurICdvq8TpfibGtQW1OtLJEM+nDm7BkOn0JrWyuSfJeZk+D1+9HbN4DRELkbE5+wo2Farb3tAnJzSGXy8xAjbRG5NWQDUZqEUqguQmuJUDrp/CSqJdUI6aYVPxTMTjEWYlSic6CL56TtYq9AAL959X/ixO59sOkMmFpTg0goBL/Xg3wO7My2E/vDdJsQ3xrBxIoSCuLHpfYWTCwvRUn5BGZ7Fy60NCO3qJjgUIaW1nbs2nOAuSQfvkAIDQsXwO9zc5KakGLcjfT1jxlBg3A8iSBF8YxGEeUQWp5L17FHEhEVY6KqWE8mHnpCZZRwOBoNoqS4AHq+yX3pEt557TVs+OUrsDFOEswF7xFZzjefxYQJxcjLycLI8AAHJHWnE4VDAcKmB1aLEdW0jKO4UGV3m9WMw4yvY8zg9EVMr5+BU6fPYsvWbZg05wa0M8Hu2P4pvK5huJin3mGs9J5vUcok4wl6LIkpvUABHxVIBmNE8jiMOqNSItO0sSRvZuAFOfs6mtoihguFse293+F36zfgphvmIOB2oYUKJBEny7Bi996d2LN7h8rc4sdWq00x4zDdQrqfQHB09268SATbuPE97N6zFx30/ThhOycnR91zkAjH4MDPfvpTvPvWW4jR0npa4LdvbsTrL7/M4iaGHJsVCcrCTJqmXhQtImjH2WeqRDiWZubSdE+uXbM2yRyQZMLKtViFJeLA+x/i4zfeRsIXwOwZ9eggl1px9yp8+f57sfiWxeju6UQPLbbwhkbMnF6rLCJJUpQxmy2Km7lcI7h06bJixrNmzcKqO+5gho/AkZfHWChQhPPwgYNY/fAjWLl8Je752wegI5lsY37q7bgMAy1SP7MBcQqdFJrCIDbotUyqjC3GMBiTIfqbxUDqQzfUpug2UaKGw0pSxwf8bRfxwesb4G5tw5eJPjvffx9fvm0lbr91Gf7w/m/x4ce/h8ksDDWB37/3rsoJ4dGQmuUEg1Pyi8RdXV0d/oY555FHHsED3/wmSvnZQ1SK8L6GeXNRM2UKNm/ejItt7Sr2qDnOkiE3TpqEAk7IR2++gX2bPiITsMBBy8doCQEpjUnHccSdU7ARgFgZKotI7NAuZJ7ilPTJHX/4AO2Hj6Ha7sD8STUY9Xkwn5SjmnHRcv4M0SGBpUtvwuOPPYr/8d9/rjBB3iU1h7hZkAgnsy1QKhXlJMK2lMShgQHyJwPcZAYDPT1YdOON+MFjj2HtmjXo7+5FilTf1dmJBnK4pQ0N8HVcwpZ33ibg+DhGnNbWIqYSC2t9KiVoa9IY1FGaNkq/NzFwZHWimb68i/S6kgRvyfR6jFxow6LySrSfPAGbQYO/e2Q1Vj/4LUyfVouGGdNQP7tBEUih3xay2uxsBxzsNrtdCR2jmw4NDatafpiuls1q0cmEmqDmhZNrsWzZMrS1dqHn8mXCrQ52ShUZHEA5obqccXf0j3/E7g/f50wlYCGbjpKbycwJdZGJzyghTRtjxhUz0RFxhqZtP34SjZVVmEtrnCdBLLaYsfOj9+HpvITaslLOQhLlRLbGWQ3obm9TGVrgL8AcMTgwBJ/Pr6xjNJpUnohTmeKSUoww8XX39MJAIbOo7BDzk/CxBx74GvMVx/d4oSPz9VzuRHVuLu5ctBBOItamt2kVeoUAbUogls2gqtMUM39cfZam6Y36U/kGCy4fPYTv3/MVrJo0FQ2sF+JdvXA6sjCcDGF/VytGy514/o3/RRaZi3feeQczp05HNa3lZkKzUtl0PooQXbRksKwjOD0RUpHsnFyYSS47WX+8zef6BwaVomarBeUTynHTwiWoYx3/+5f+G44QZJZUTUaOwYhBAk3QbsOvDx/At9euwVe/9yhTC0tmuqCDlh0l3FsITinJ5BxLb2WxI4s6fZwhYhZyiD56BqRFmCfzQI7NgCLO4qHWC/jJ40+gP8ZERKo9Z9pMRQDziEKyyGDke3JycxAgMQwwTix8xp6VrVjzMGFXclXDrEbU0ULCqK2kKb3dffjxsz/Gf7rnq3APDsMqLsp0YOSE2OmOZlrbRPDoa29XUK0xpLmaCC7uLOfpPE8QYxHLf3GcO34cWZwpJ2cq6fETEfQIMcGR2aGGWdlPGtJy/CwOdviw9J4FpCOT4WLWFqQySCFEHxfkihMwsrKyVIwMDQ2R8rtx/vx5tHOiTjL59fUHMG/BdFVh7tmxF//w+D/wecYT80gen7NReAMpjJ2Tq6XyTjLni03n0dXcjPIZs5Q1xRPNrDgFIfVUTilCD0eE5mo6dhwO+p6DOSARGYDJboU/FkZqNMEBCnAjLVBMDuUJHEBplhP0H84KiSEVSXFmxComiwWlZWXqOEiX8zJehD0vuWUplq+8jZZxYZSzncMYkLhaNG8xvvHQf8WbP/4Jjh09hhkECUoHHV3SzhkXWJ9YWIQmIlgn00J5/SyVfFPMG4RChZYKxtjEQHD19aKPmTeXAhCcFOVOEmZTrOgsRgOCwyNIuXwoM2WjxORAd/NFXDh2CmaLrKgYVJ3R3NyCTgaqBLmsvPjp47KeNUjU2rTpY2zeuoXQ60WQ914gGubm5uFbj3wPXWeasHvXHgU2tdXVih6JMhYKF+Cz1cUl8A+50MMkSVE58zrEWCJLi5EJZBrnK4mB7m7EWNjkiLacDS0hTrDaYNKT4xiQHCX1GByBI6nH5KJy+AfdaDpzDha6nKBUMQfL5Sy3tLTiOF1UfLe0tFQF4+23r1LxIDXMps0fY9269Th67JhanEuS/j//3E84AV1obJyNCrLqEOuaOEtcMwV2EDQKiHARfxB9nd2EYc4y9QwJbWETb8hYRE3AyOAQzLRNNi0SZYBrmf5HJf2T8EndXMzgDJKG2lJ61BSX40R/L04cO4Gbu7pVfFj5/RwSwBG3B6dOnYKVaFM7eYpyI4mX1atXwyArkmTYeiJSNuMjFvBjy8dbsX37DjgZsMPM7E1kwXlUxEGmLXReVidDjBFpHlolo4hyZxGeMZRpzCsMah9ZKgewMXBSVMQogCXZk8jjiSZho/Ahix1NLLBaRv04MdCPD3bswvubtyGPMBx0+2AvyMfKL66Cgez3k0/+iNZz55FHdhAJRlFYUcuE5kAiqkV2fhm8lwfw/JPP4u+/9xhmN85DYWUNzg24carfjdyaOuSUVWGAKBZibjKTX4m4EeHxwrGoi475RRiFZUxJaeTnegQ9EYTpIjYCgCE6SlfyI4ssdSgUw4RZC9AW12M3ff5fmk7jlbbTSC2cBXNNLV589XVseHUdTrW040JfH5BlwbJVKxgzfrzwzFq8tPYFhFxhtB5swvFDjKG2Efzk0bX48tIv4fVfvAlDUIOS0hpUzbkZ7fo8fHhpBFs7XOiMGZBXXMYaZJQCM/gpqHfUTWnTsRGltcQkDGEqILU9LS1fmBkbGh0LK+YIM6mAXp+NEFFphNh9/lwbmvpduMyHdZz9ujm1SDns8HcN8S1WvPDzV/C1r9yJWfPqsXnLJhzf8Qm6TjfB4Af2t/Rg228/prVKYcwh62VMnT16FAm61Q1kwHWz5+LA0ZPImzIdZY1zMcLkebLrEpyc+SUOi1q9FGnFjXS0jJKeXS85jqeCWukIEYWoijXPhjjt5+GDSXKmiMmKS8EIWoNh/LG9A13MNjnTGlBRP4+VXTmLKAMzDxOesww6ez7dyclSOBc6P+PIG8OddXPw/VV34h7ytdJQEOWsImvNWtTY9ZhekIVbZ9fhjvmNqC8thp5juHr6kZ2XjeKacvQnAmgLDMJjJPJpWe9TWhHfarZRclFG4oxC81SVumOaaBN0tqwCB2K0iItJKUahxaVOk6Kcc3kRKi5G/g1zUcLZ82tMaG7pYinbB7cvAj+ZtTa7APuON+HNN9/D8X1MqhEtyvU2FESSKCG1Xjl9OiqtJkQGuuG6yPrdN4Jihw35pOdhrxvTptSyThlF32AvQiyZTbkWaB0m+Fg6RymTj8mRCI98ZzHFTSc/qRiFdl1TIbKkYj1doALbyxIySt7ljWlwadiLQd5XumA+PLkOFeBnunrgp/QmrXApHbwkeTnlVfClDGhu64Zn2I8imxM2BnV80IMivmvRjBkoZKXn7u9BX/dljAb9KhkaCK05hQUIkfgZ7VQqQojtvcyiTIOC/BzOdApGyjQ04mXutaOictKYRYQ0CrOWuiftatL4jQZllRORIww1HEOExEwnRZaOHIxuZizIQ4efRU9fFwKcBlnK0TARJRg/VkJrv7BdRy7shcXEDTOCtMQoe0JrhDHLgZbOLriEO/H9DYtvwuS589FBlPvdjj3YcvAwjtJK2iwTnDnZiDDz65nPCohGwgBtlix09w3DnJWLSVPqVEDIvqOOrpWUEn28IlEKb3Pko3zSFAyJv7JbCZtZRgs0zLA+ukKCaGHOs8LCrqENo0SlZDRIE5PxslYY5QDGvHwks3PQG0vAy3omlF+Ic0xchwaG0ct3Fcyeh7se/gG+8aO1qLrlNgQLymCtmwFNeRFYNyIVCcGZ0KAiZURxTA9LhFbjvx4+b8jKQUXNFKVIkLRFwkJKDx3TeaZpIwGBMh2cEyowzIEHOSOyumdmFMWZ4FKjAdgtBhhtRozGQ5yJOPLzcpDNpBdgFShMdpj39fPcw9dfjsbRSUp/LhrDe6fOwMek1k1LXQjF4bE4kD2lHs7pjai5eQXuWf0w5ty2Au5wAP3kU4UaI2qz8pFLV42HE4wZoJ9MOkUOlkPEEw1inNx0oyVEo7HGJK4QGMvuuANFk6rRxqydItTNnjoVuYyRwfPNcIpPkv97/V6VnSO0oibBXMpkOcQytaSgCBbCa4J0Il5Sgg/4zGuHDkMzowHLHvoevvR3P0QgOx8/XfcbxOgmeTXT0O4JIEzY37Z/DyomVpDtklnE6ea2XOYzM7L5zrMsmc8xFr7/7LMwEFnFiXIdORj1+2CS7YooSa2gGrtWVj9Es7rZjViwcgUue0fQ6/VgMhNentmi4NFMd7HxXAhhnObnZNMyWpbIFg5qoj8zr1LpkIaMlXGjr5qI3FmzUDh3HlzMR9aKKpRPm4Felwcfb9tB1kBGTYW3fvIJa3Ejs/8oQsMexPwhhAk4AQrcMRrE4e5OLL/tC6Tv01U0MywJEnQ48jDBK71UimNW0doYaH5SgZRRjxVfugtB1iGHW8+DGYU1AwM4QGoQjMFqsLF4Yr4hE0hSdGgsrAnssJLiGGiZBK0UZCB66FojiRS6yHLP9vTgCGuRIbLeaVOmopIB3372LDz9fSzcUti5dTO0gVHoSGMKaNGJkyfDUV2FSFE+eljQnQn5sPyB++GoKAXnD0HeK2YxEH794SDlUEsmaUXEGm5aQWqtqTfMwZK770IPbzrYfA5V06YhGScTplX0jCOKzAd0VChd2tIsivbriWYWErhsexbyCgqQz9JWS9P3sbDasXsXNm/6CF0X25HPuBrquowDOz9FPzO4lky7tqSMdRBBhNbs8/mw5fgRvL13F7a3teJsIIYRvluiQiwgWxHqjPklHJa9/zFzsOmeeurJtZIpJX8ayDprampY0bXg/NnzqGSctJK86XKdSNhYJ4eJ+TSvELlg2IuA343ykiLYJQ+wCIsQeUykD/K2KMvgCHPGQHcXWs+eRkdTE3yDA7h8oRXNTWfo3yyjc4RUhnH+1Fl0s5aR8jtAFpBbVYaFd96O6Qvn4lBTC2qIbkXOXFpDFtYjhF8dIrJNTgYiqqjuGu5P5TkJnXSH9MZnEhv/9XWs/6efw2FzwMsqUF9ageSEcvSN+KEhylnphgPubrqkl3WDkYpkwRXwsIgaVHV2lsWMJGc7wRnMy8vFIINWQ9crYjHlp5uNkgrllRcjRotaDVYqdg71kyZj9be/hdrKYtRMrkbV7AYhWLhx+Sp88UtfwQ8e+S+KGHpdfchz8j3+MOzMU1KdStOtfeaptQaDiSyTARQh3tE6ucy4ouaxs2eYWwLkX2YSvwJyrCBSLHct5EHhOOsDfRQXT52ErdCJqkkTMbFiAqZVV2L29GmYP6sB82bNxJLFN2IOz5ctuRmzGmYhxDjSM9NbOca506fxg8efYAFmw7Jbb8W3//ODKCwpVOtguc5CBDlxFy5cQmvrBSxduZRZ30BLBsm7LERRMgzmpwxz1Fv40oGebgZ2GbSsCN2EtuLyCqx+8kfodI3g1dc2oNiejdx4jNGRRETWkmgFC7HdosuCfcli/M3Xvo67GVul+XmQCkHqh3QYpgmfjCT/ErEkASGCc6wWLbz3NN3tuw8/hGxSEanzRwI+nD52GD7WPQVFpbCTId+6fDleeOln6Lx0CblELwORU94XJ6iMb9pEKoL8UieS2rBsDsBmNyOeiiNGEda+9BK++dB3CZtutecdIreK0tW0dicDMIfUPxejXsYFpZ04pkSC9T7/wuUe4huY5f0j/BxXMRFiQs0vKUB3bxcuUxkN/fzD37+He+66HZfamkk/gvjqffdiyox6uGl9zhwa58zE6VPHECayyk92dJymWCxFtpyntvDipCpxWlAr5CzFmZYVbtmpyvywK0FUYn7CUpo8i0Epa7myZ+4sKiSZs/MFevjJgMOE5xDRRnipijCFLNRMqh6+KyUr/fyX4NFkYc5h+Szs1cIckEUr9Pf2EAV1KJtQLEvQasO1j6Aw5OYEcHwTK87pdVPVL48EYiXAJRS0jEVZAJS4lsJKm95wT/+TJn/H99JiZm0OnIxH1ICekWG0XWimnHFUlpWqml62qyM0tdwvKyjSJNHKFMmPbxKK4KlfmyCLLmkkVMsWhJSqo0Q32aMUBXqYd+S+OXPmqD1LaRs3boTT6VT7l7JulmmywCHXZD1N3sXRZHhpaWUyS8PyV2bYQ0Ya8HngHhlCYfEE8iwHRrw+yJ5KX08nsYHKud1qSchilN9epZ8XRUQBKxm07HGkEZHewoFF2TjdSpZYN2zYQOSJY8uWLdixYwfKysrUzvE05jDZBn/rrbcwg6XAlClT1LPS5DlZnJOFDVFOlFKboRmLXPsvrVLdlMkoY4JrPXcWe3dvx2B/N/JYGFVVsnxlNszOtnM2h9XurDShMfJGWREUQJFzOWbOo1H5lZHknDAh1Ie+vl5MZ/ElC9r333+/EvLTTz/FunXrlJKNjY2499571azLZEgXJYRfSVOW57kmER8dGyIjembBPn2UWv53H3yEQ6y1t2zbhvZLneRaMczgALLRkiAn4kvwT//4AhYvWjj2FkYFXU+k18mKIYWXqyZm8HfoKr/+9W/UuvDO7Ttwz52r8POXXlS/wJMm1hJXHRgYUErJIl95ebn6TtxP3Ey2MkQxUUhcV5puzTNPrxUlpPoSL85YSDUetLTZtKlTsHzZUsyYOYMJLgeXL3fQ1YZZ8XWR+Rbg8sWLmHvDDWigC8iTavmf06O2yWh2yVmyyC20pre3TwlaM2kSwcKHV15+mWWsU/00RBbFZcZl/14UkEU+OZcmfDDEUlzcSRTIKCLKilWuKjIm/tWzdJMXixvIymBBvhOrbr0NNzF3VJPhGklVfMzUrS0tWLRwIRYtWKCelNgQn9VS8ASZruyhqN9i8Z+PAsmu1mT6vJcsu7ioCBMnVqrdLQleUUb2IDMCirBiJYkP2UiVJhNhJ2iIS8l3cr+s86akp6THx/e46slEPJVgj5M9RlPxVIQ9xD6qjgleS6Ve/Od/TjEzp4ZGXKkkPw8M9PNvIuX1jKRIU9T58PCQ+m7P/n2pHz39dMrl96eefGZN6sfPPc+r6UarpCh4igGsPjM/kIEkr6sTStI2EB+WoinzOdOkLFZXJKCk806JnnQESQfq66fTVw1q+0Ca+ikfv8lmEZRhqTk5JH1sJaxD7MKCycvE0oFA2mUot0I8cRk5l575Yej1NG16xzoj0tXj+K5qfDnKX54LkGa6XJtYUYFs+m5Lc7P6LH48QnrjdXsVGZW75IfQ8p2DQX3i+HGsfeYZvP7av2ISY0Xc94qLsEkAi1KZQL6eJlvUKpXIcGPypo/XtIwSchTFMl2+SaF2Ug3mzJ6Nnu4edbcIlJfnhIM+baCfywvtNpv6zsnrskVNf8Cjjz6KW265Rd0vMZDJQXQVdcwodj1NZanxCow/TzelAi8Q0cZ6BuHkenxsz3tC6QQcPXIE//Lqqzhz6jSTqF+9xESmKk12pSRxbtm8Ge1t7QoJn3nqKYJGlfpeglpgNYNEYqG/pGkiDEQlKgeVowx+9bO6Ip/UX1FOunxUR7bOrg5MrJyodpyef/55tJFyy91qT5ExIjPtIFeLk0x2dXcrjiRu9tjfP4YHv/OgQjVxrbgQPx7lfrGInGfi5nqaJpxRRPp4JdRV+Zw+ZgT/rCKy3G8hdMp9kgv27dmrtuG8Hh9cwy4VsDGWAIVFBfAHApg2vQ7V1dWYv3C+slIsGlOCixt9Vmi5ft2KiEXUiQgvR/nAc5UaM9Kmr6qWvvnqV5w4znQnKsoq1GfhULIdJ81PTpblyFY/TLNl2ce/hs+n4PV5FRcTd5Jfd0sTy2RiQ3jU9caJRrB97Fy1cWP9VbXP/d8Kfx0N+N8DEDPpz9s3sAAAAABJRU5ErkJggg==;" vertex="1" parent="1">
          <mxGeometry x="820" y="220" width="50" height="72" as="geometry" />
        </mxCell>
        <mxCell id="LCJb7GotNwv-lG0VMmux-5" value="BUILD AND TEST WAS SUCCESSFUL&amp;nbsp;" style="text;html=1;align=center;verticalAlign=middle;resizable=0;points=[];autosize=1;strokeColor=none;fillColor=none;" vertex="1" parent="1">
          <mxGeometry x="760" y="410" width="240" height="30" as="geometry" />
        </mxCell>
        <mxCell id="LCJb7GotNwv-lG0VMmux-6" value="" style="verticalLabelPosition=bottom;verticalAlign=top;html=1;shape=mxgraph.basic.smiley" vertex="1" parent="1">
          <mxGeometry x="222" y="440" width="70" height="62" as="geometry" />
        </mxCell>
        <mxCell id="LCJb7GotNwv-lG0VMmux-7" value="" style="edgeStyle=orthogonalEdgeStyle;html=1;endArrow=open;elbow=vertical;startArrow=none;endFill=0;strokeColor=#545B64;rounded=0;" edge="1" parent="1">
          <mxGeometry width="100" relative="1" as="geometry">
            <mxPoint x="780" y="460.5" as="sourcePoint" />
            <mxPoint x="660" y="460" as="targetPoint" />
          </mxGeometry>
        </mxCell>
        <mxCell id="LCJb7GotNwv-lG0VMmux-8" value="Created a new role in AWS EB" style="text;html=1;align=center;verticalAlign=middle;resizable=0;points=[];autosize=1;strokeColor=none;fillColor=none;" vertex="1" parent="1">
          <mxGeometry x="491" y="488" width="190" height="30" as="geometry" />
        </mxCell>
        <mxCell id="LCJb7GotNwv-lG0VMmux-9" value="" style="outlineConnect=0;dashed=0;verticalLabelPosition=bottom;verticalAlign=top;align=center;html=1;shape=mxgraph.aws3.ec2;fillColor=#F58534;gradientColor=none;" vertex="1" parent="1">
          <mxGeometry x="40" y="138.5" width="76.5" height="93" as="geometry" />
        </mxCell>
        <mxCell id="LCJb7GotNwv-lG0VMmux-10" value="" style="edgeStyle=orthogonalEdgeStyle;html=1;endArrow=open;elbow=vertical;startArrow=none;endFill=0;strokeColor=#545B64;rounded=0;" edge="1" parent="1">
          <mxGeometry width="100" relative="1" as="geometry">
            <mxPoint x="82.75" y="120" as="sourcePoint" />
            <mxPoint x="82.75" y="130" as="targetPoint" />
            <Array as="points">
              <mxPoint x="82.75" y="90" />
              <mxPoint x="82.75" y="90" />
            </Array>
          </mxGeometry>
        </mxCell>
        <mxCell id="LCJb7GotNwv-lG0VMmux-13" value="Created a new EC2&lt;br&gt;instance" style="text;html=1;align=center;verticalAlign=middle;resizable=0;points=[];autosize=1;strokeColor=none;fillColor=none;" vertex="1" parent="1">
          <mxGeometry x="-4.690000000000001" y="235" width="130" height="40" as="geometry" />
        </mxCell>
        <mxCell id="LCJb7GotNwv-lG0VMmux-17" value="" style="edgeStyle=orthogonalEdgeStyle;html=1;endArrow=open;elbow=vertical;startArrow=none;endFill=0;strokeColor=#545B64;rounded=0;" edge="1" parent="1">
          <mxGeometry width="100" relative="1" as="geometry">
            <mxPoint x="500" y="460.5" as="sourcePoint" />
            <mxPoint x="380" y="460" as="targetPoint" />
          </mxGeometry>
        </mxCell>
        <mxCell id="LCJb7GotNwv-lG0VMmux-18" value="EB AND DOMAIN NAME CREATED SUCCESSFULLY:&lt;br&gt;&lt;p style=&quot;text-indent:-.25in;mso-list:l0 level1 lfo1&quot; class=&quot;MsoListParagraph&quot;&gt;·&lt;span style=&quot;font-family:Symbol;mso-fareast-font-family:Symbol;mso-bidi-font-family:&lt;br/&gt;Symbol&quot;&gt;&lt;/span&gt;&lt;a target=&quot;_blank&quot; href=&quot;http://url-shortener-env.eba-9pmrmvp8.us-east-1.elasticbeanstalk.com/&quot;&gt;&lt;span style=&quot;font-size:10.5pt;line-height:107%;font-family:&lt;br/&gt;Roboto;background:white&quot;&gt;Url-shortener-env.eba-9pmrmvp8.us-east-1.elasticbeanstalk.com&amp;nbsp;&lt;/span&gt;&lt;/a&gt;&lt;br&gt;&lt;br&gt;&lt;b&gt;http://url-shortener-env.eba-9pmrmvp8.us-east-1.elasticbeanstalk.com/Dominique_I&lt;/b&gt;&lt;br&gt;&lt;/p&gt;" style="text;html=1;align=center;verticalAlign=middle;resizable=0;points=[];autosize=1;strokeColor=none;fillColor=none;" vertex="1" parent="1">
          <mxGeometry x="7" y="340" width="500" height="100" as="geometry" />
        </mxCell>
        <mxCell id="LCJb7GotNwv-lG0VMmux-19" value="" style="verticalLabelPosition=bottom;verticalAlign=top;html=1;shape=mxgraph.basic.smiley" vertex="1" parent="1">
          <mxGeometry x="810" y="440" width="70" height="62" as="geometry" />
        </mxCell>
      </root>
    </mxGraphModel>
  </diagram>
</mxfile>
